<svg width="256" height="256" viewBox="0 0 256 256" fill="none" xmlns="http://www.w3.org/2000/svg">
<circle cx="128" cy="128" r="123" fill="#232323" stroke="#D3D3D3" stroke-width="10"/>
<path d="M91.8973 102V94.51H105.337V59.79H104.707L94.0673 72.39L88.3273 67.56L100.437 53.14H114.507V94.51H125.567V102H91.8973ZM145.77 102.77C142.13 102.49 139.003 101.673 136.39 100.32C133.823 98.92 131.723 97.1233 130.09 94.93L135.62 89.26C138.7 92.7133 142.247 94.6733 146.26 95.14V80.65L144.65 80.37C142.363 79.95 140.38 79.32 138.7 78.48C137.067 77.64 135.713 76.6133 134.64 75.4C133.613 74.1867 132.843 72.8333 132.33 71.34C131.863 69.8467 131.63 68.2367 131.63 66.51C131.63 62.5433 132.843 59.3467 135.27 56.92C137.743 54.4933 141.243 53.0233 145.77 52.51V45.23H152.63V52.44C155.663 52.8133 158.253 53.5833 160.4 54.75C162.593 55.9167 164.437 57.4333 165.93 59.3L160.4 64.97C158.253 62.4033 155.5 60.84 152.14 60.28V73.58L153.89 73.86C158.463 74.7 161.777 76.3333 163.83 78.76C165.883 81.14 166.91 84.08 166.91 87.58C166.91 91.5467 165.673 94.86 163.2 97.52C160.773 100.133 157.25 101.79 152.63 102.49V109.91H145.77V102.77ZM140.24 66.23C140.24 67.9567 140.707 69.2867 141.64 70.22C142.573 71.1533 144.113 71.8767 146.26 72.39V60.07C142.247 60.63 140.24 62.6833 140.24 66.23ZM158.37 88.14C158.37 86.2733 157.88 84.8733 156.9 83.94C155.92 82.96 154.333 82.2367 152.14 81.77V95.07C154.24 94.6967 155.803 93.9267 156.83 92.76C157.857 91.5933 158.37 90.0533 158.37 88.14ZM79.101 193L65.731 144.14H75.811L81.901 168.85L85.471 184.25H85.961L89.601 168.85L95.761 144.14H105.351L91.981 193H79.101ZM112.114 193V144.14H130.664C135.424 144.14 139.064 145.493 141.584 148.2C144.104 150.907 145.364 154.593 145.364 159.26C145.364 163.927 144.104 167.613 141.584 170.32C139.064 173.027 135.424 174.38 130.664 174.38H121.284V193H112.114ZM121.284 166.89H128.774C131.247 166.89 133.02 166.4 134.094 165.42C135.167 164.393 135.704 162.783 135.704 160.59V157.93C135.704 155.737 135.167 154.15 134.094 153.17C133.02 152.143 131.247 151.63 128.774 151.63H121.284V166.89ZM161.716 157.93H161.016V193H153.176V144.14H164.446L177.256 179.21H177.956V144.14H185.796V193H174.526L161.716 157.93Z" fill="#D3D3D3"/>
</svg>
